<svg width="27" height="24" viewBox="0 0 27 24" fill="none" xmlns="http://www.w3.org/2000/svg">
<path d="M14.0345 0.191901C13.875 0.0675384 13.6785 0 13.4763 0C13.274 0 13.0775 0.0675384 12.918 0.191901L0 10.2647L1.11741 11.6779L2.69688 10.4463V21.5745C2.69783 22.0511 2.88755 22.5078 3.22452 22.8448C3.56149 23.1818 4.01825 23.3715 4.49479 23.3724H22.474C22.9505 23.3715 23.4073 23.1818 23.7442 22.8448C24.0812 22.5078 24.2709 22.0511 24.2719 21.5745V10.4544L25.8513 11.686L26.9688 10.2728L14.0345 0.191901ZM15.2823 21.5745H11.6865V14.3829H15.2823V21.5745ZM17.0802 21.5745V14.3829C17.0802 13.906 16.8908 13.4487 16.5536 13.1115C16.2164 12.7744 15.7591 12.5849 15.2823 12.5849H11.6865C11.2096 12.5849 10.7523 12.7744 10.4151 13.1115C10.078 13.4487 9.88854 13.906 9.88854 14.3829V21.5745H4.49479V9.04484L13.4844 2.04196L22.474 9.05383V21.5745H17.0802Z" fill="#7171FF"/>
</svg>
